<mxfile host="app.diagrams.net" agent="Mozilla/5.0 (Windows NT 10.0; Win64; x64) AppleWebKit/537.36 (KHTML, like Gecko) Chrome/141.0.0.0 Safari/537.36" version="28.2.3">
  <diagram id="diagram-1" name="Page-1">
    <mxGraphModel dx="1042" dy="562" grid="0" gridSize="10" guides="1" tooltips="1" connect="1" arrows="1" fold="1" page="1" pageScale="1" pageWidth="850" pageHeight="1100" math="0" shadow="0">
      <root>
        <mxCell id="0" />
        <mxCell id="1" parent="0" />
        <mxCell id="2" value="1&lt;sup&gt;st&lt;/sup&gt; Level Admin Side DFD" style="text;html=1;strokeColor=none;fillColor=none;align=center;verticalAlign=middle;whiteSpace=wrap;rounded=0;fontSize=18;fontStyle=1;" parent="1" vertex="1">
          <mxGeometry x="275" y="20" width="300" height="30" as="geometry" />
        </mxCell>
        <mxCell id="3" value="ADMIN" style="shape=rounded;whiteSpace=wrap;html=1;arcSize=20;fillColor=#f5f5f5;gradientColor=#e6e6e6;gradientDirection=south;strokeColor=#666666;shadow=1;fontStyle=1;fontSize=14;" parent="1" vertex="1">
          <mxGeometry x="42" y="254" width="120" height="50" as="geometry" />
        </mxCell>
        <mxCell id="4" value="&lt;b&gt;1.0&lt;/b&gt;&lt;br&gt;Login" style="shape=rounded;whiteSpace=wrap;html=1;arcSize=50;fillColor=#f5f5f5;gradientColor=#e6e6e6;gradientDirection=south;strokeColor=#666666;shadow=1;fontStyle=0;fontSize=14;align=center;" parent="1" vertex="1">
          <mxGeometry x="348" y="100" width="160" height="70" as="geometry" />
        </mxCell>
        <mxCell id="5" value="&lt;b&gt;2.0&lt;/b&gt;&lt;br&gt;Add Course" style="shape=rounded;whiteSpace=wrap;html=1;arcSize=50;fillColor=#f5f5f5;gradientColor=#e6e6e6;gradientDirection=south;strokeColor=#666666;shadow=1;fontStyle=0;fontSize=14;align=center;" parent="1" vertex="1">
          <mxGeometry x="348" y="225" width="160" height="70" as="geometry" />
        </mxCell>
        <mxCell id="6" value="&lt;b&gt;3.0&lt;/b&gt;&lt;br&gt;Add Teacher" style="shape=rounded;whiteSpace=wrap;html=1;arcSize=50;fillColor=#f5f5f5;gradientColor=#e6e6e6;gradientDirection=south;strokeColor=#666666;shadow=1;fontStyle=0;fontSize=14;align=center;" parent="1" vertex="1">
          <mxGeometry x="345" y="337" width="160" height="70" as="geometry" />
        </mxCell>
        <mxCell id="7" value="&lt;b&gt;4.0&lt;/b&gt;&lt;br&gt;Add Student" style="shape=rounded;whiteSpace=wrap;html=1;arcSize=50;fillColor=#f5f5f5;gradientColor=#e6e6e6;gradientDirection=south;strokeColor=#666666;shadow=1;fontStyle=0;fontSize=14;align=center;" parent="1" vertex="1">
          <mxGeometry x="350" y="460" width="160" height="70" as="geometry" />
        </mxCell>
        <mxCell id="8" value="&lt;b&gt;5.0&lt;/b&gt;&lt;br&gt;Search Report" style="shape=rounded;whiteSpace=wrap;html=1;arcSize=50;fillColor=#f5f5f5;gradientColor=#e6e6e6;gradientDirection=south;strokeColor=#666666;shadow=1;fontStyle=0;fontSize=14;align=center;" parent="1" vertex="1">
          <mxGeometry x="350" y="583" width="160" height="70" as="geometry" />
        </mxCell>
        <mxCell id="9" value="&lt;b&gt;6.0&lt;/b&gt;&lt;br&gt;Admin Activity" style="shape=rounded;whiteSpace=wrap;html=1;arcSize=50;fillColor=#f5f5f5;gradientColor=#e6e6e6;gradientDirection=south;strokeColor=#666666;shadow=1;fontStyle=0;fontSize=14;align=center;" parent="1" vertex="1">
          <mxGeometry x="369" y="708" width="160" height="70" as="geometry" />
        </mxCell>
        <mxCell id="10" value="AdminMst" style="shape=partialRectangle;whiteSpace=wrap;html=1;top=0;bottom=0;right=0;left=0;strokeColor=#000000;fillColor=none;align=center;verticalAlign=middle;dashed=0;fontSize=12;" parent="1" vertex="1">
          <mxGeometry x="650" y="125" width="120" height="20" as="geometry" />
        </mxCell>
        <mxCell id="11" value="CourseMst" style="shape=partialRectangle;whiteSpace=wrap;html=1;top=0;bottom=0;right=0;left=0;strokeColor=#000000;fillColor=none;align=center;verticalAlign=middle;dashed=0;fontSize=12;" parent="1" vertex="1">
          <mxGeometry x="650" y="245" width="120" height="20" as="geometry" />
        </mxCell>
        <mxCell id="12" value="TeacherMst" style="shape=partialRectangle;whiteSpace=wrap;html=1;top=0;bottom=0;right=0;left=0;strokeColor=#000000;fillColor=none;align=center;verticalAlign=middle;dashed=0;fontSize=12;" parent="1" vertex="1">
          <mxGeometry x="640" y="365" width="120" height="20" as="geometry" />
        </mxCell>
        <mxCell id="13" value="StudentMst" style="shape=partialRectangle;whiteSpace=wrap;html=1;top=0;bottom=0;right=0;left=0;strokeColor=#000000;fillColor=none;align=center;verticalAlign=middle;dashed=0;fontSize=12;" parent="1" vertex="1">
          <mxGeometry x="660" y="485" width="120" height="20" as="geometry" />
        </mxCell>
        <mxCell id="14" value="StudentMst" style="shape=partialRectangle;whiteSpace=wrap;html=1;top=0;bottom=0;right=0;left=0;strokeColor=#000000;fillColor=none;align=center;verticalAlign=middle;dashed=0;fontSize=12;" parent="1" vertex="1">
          <mxGeometry x="657" y="605" width="120" height="20" as="geometry" />
        </mxCell>
        <mxCell id="15" value="StudentMst, AdminMst" style="shape=partialRectangle;whiteSpace=wrap;html=1;top=0;bottom=0;right=0;left=0;strokeColor=#000000;fillColor=none;align=center;verticalAlign=middle;dashed=0;fontSize=12;" parent="1" vertex="1">
          <mxGeometry x="670" y="733" width="150" height="20" as="geometry" />
        </mxCell>
        <mxCell id="16" value="" style="endArrow=classic;html=1;rounded=0;" parent="1" source="4" target="5" edge="1">
          <mxGeometry width="50" height="50" relative="1" as="geometry">
            <mxPoint x="360" y="200" as="sourcePoint" />
            <mxPoint x="410" y="250" as="targetPoint" />
          </mxGeometry>
        </mxCell>
        <mxCell id="17" value="" style="endArrow=classic;html=1;rounded=0;" parent="1" source="5" target="6" edge="1">
          <mxGeometry width="50" height="50" relative="1" as="geometry">
            <mxPoint x="360" y="320" as="sourcePoint" />
            <mxPoint x="410" y="370" as="targetPoint" />
          </mxGeometry>
        </mxCell>
        <mxCell id="18" value="" style="endArrow=classic;html=1;rounded=0;" parent="1" source="6" target="7" edge="1">
          <mxGeometry width="50" height="50" relative="1" as="geometry">
            <mxPoint x="360" y="440" as="sourcePoint" />
            <mxPoint x="410" y="490" as="targetPoint" />
          </mxGeometry>
        </mxCell>
        <mxCell id="19" value="" style="endArrow=classic;html=1;rounded=0;" parent="1" source="7" target="8" edge="1">
          <mxGeometry width="50" height="50" relative="1" as="geometry">
            <mxPoint x="360" y="560" as="sourcePoint" />
            <mxPoint x="410" y="610" as="targetPoint" />
          </mxGeometry>
        </mxCell>
        <mxCell id="20" value="" style="endArrow=classic;html=1;rounded=0;" parent="1" source="8" target="9" edge="1">
          <mxGeometry width="50" height="50" relative="1" as="geometry">
            <mxPoint x="360" y="680" as="sourcePoint" />
            <mxPoint x="410" y="730" as="targetPoint" />
          </mxGeometry>
        </mxCell>
        <mxCell id="22" value="" style="endArrow=classic;html=1;rounded=0;entryX=0;entryY=0.5;entryDx=0;entryDy=0;exitX=0.5;exitY=0;exitDx=0;exitDy=0;" parent="1" source="3" target="4" edge="1">
          <mxGeometry width="50" height="50" relative="1" as="geometry">
            <mxPoint x="160" y="135" as="sourcePoint" />
            <mxPoint x="270" y="135" as="targetPoint" />
            <Array as="points">
              <mxPoint x="220" y="135" />
            </Array>
          </mxGeometry>
        </mxCell>
        <mxCell id="21" value="Request for login" style="edgeLabel;html=1;align=center;verticalAlign=middle;resizable=0;points=[];fontSize=12;" parent="22" vertex="1" connectable="0">
          <mxGeometry x="-0.25" y="1" relative="1" as="geometry">
            <mxPoint x="-61" as="offset" />
          </mxGeometry>
        </mxCell>
        <mxCell id="24" value="" style="endArrow=classic;html=1;rounded=0;exitX=0;exitY=0.5;exitDx=0;exitDy=0;entryX=0.946;entryY=0.008;entryDx=0;entryDy=0;entryPerimeter=0;" parent="1" source="4" target="3" edge="1">
          <mxGeometry width="50" height="50" relative="1" as="geometry">
            <mxPoint x="290" y="145" as="sourcePoint" />
            <mxPoint x="160" y="155" as="targetPoint" />
            <Array as="points">
              <mxPoint x="220" y="155" />
            </Array>
          </mxGeometry>
        </mxCell>
        <mxCell id="23" value="Response" style="edgeLabel;html=1;align=center;verticalAlign=middle;resizable=0;points=[];fontSize=12;" parent="24" vertex="1" connectable="0">
          <mxGeometry x="0.25" y="-1" relative="1" as="geometry">
            <mxPoint x="14" y="-4" as="offset" />
          </mxGeometry>
        </mxCell>
        <mxCell id="26" value="" style="endArrow=classic;html=1;rounded=0;entryX=0.15;entryY=0.165;entryDx=0;entryDy=0;entryPerimeter=0;" parent="1" target="10" edge="1">
          <mxGeometry width="50" height="50" relative="1" as="geometry">
            <mxPoint x="508" y="120" as="sourcePoint" />
            <mxPoint x="625" y="123.82" as="targetPoint" />
          </mxGeometry>
        </mxCell>
        <mxCell id="25" value="Check for login" style="edgeLabel;html=1;align=center;verticalAlign=middle;resizable=0;points=[];fontSize=12;" parent="26" vertex="1" connectable="0">
          <mxGeometry x="-0.25" y="1" relative="1" as="geometry">
            <mxPoint x="51" y="-17" as="offset" />
          </mxGeometry>
        </mxCell>
        <mxCell id="28" value="" style="endArrow=classic;html=1;rounded=0;entryX=1;entryY=0.5;entryDx=0;entryDy=0;exitX=0;exitY=1;exitDx=0;exitDy=0;" parent="1" source="10" target="4" edge="1">
          <mxGeometry width="50" height="50" relative="1" as="geometry">
            <mxPoint x="580" y="155" as="sourcePoint" />
            <mxPoint x="450" y="155" as="targetPoint" />
          </mxGeometry>
        </mxCell>
        <mxCell id="27" value="Reply" style="edgeLabel;html=1;align=center;verticalAlign=middle;resizable=0;points=[];fontSize=12;" parent="28" vertex="1" connectable="0">
          <mxGeometry x="0.25" y="-1" relative="1" as="geometry">
            <mxPoint as="offset" />
          </mxGeometry>
        </mxCell>
        <mxCell id="34" value="" style="endArrow=classic;html=1;rounded=0;exitX=1;exitY=0.5;exitDx=0;exitDy=0;entryX=0;entryY=0.5;entryDx=0;entryDy=0;" parent="1" source="5" target="11" edge="1">
          <mxGeometry width="50" height="50" relative="1" as="geometry">
            <mxPoint x="450" y="255" as="sourcePoint" />
            <mxPoint x="580" y="255" as="targetPoint" />
          </mxGeometry>
        </mxCell>
        <mxCell id="33" value="Insert Data" style="edgeLabel;html=1;align=center;verticalAlign=middle;resizable=0;points=[];fontSize=12;" parent="34" vertex="1" connectable="0">
          <mxGeometry x="-0.25" y="1" relative="1" as="geometry">
            <mxPoint x="9" y="-12" as="offset" />
          </mxGeometry>
        </mxCell>
        <mxCell id="36" value="" style="endArrow=classic;html=1;rounded=0;entryX=1;entryY=0.5;entryDx=0;entryDy=0;exitX=0.107;exitY=0.988;exitDx=0;exitDy=0;exitPerimeter=0;" parent="1" source="11" edge="1">
          <mxGeometry width="50" height="50" relative="1" as="geometry">
            <mxPoint x="666.44" y="284.51999999999987" as="sourcePoint" />
            <mxPoint x="505" y="276" as="targetPoint" />
          </mxGeometry>
        </mxCell>
        <mxCell id="35" value="Reply" style="edgeLabel;html=1;align=center;verticalAlign=middle;resizable=0;points=[];fontSize=12;" parent="36" vertex="1" connectable="0">
          <mxGeometry x="0.25" y="-1" relative="1" as="geometry">
            <mxPoint x="10" y="21" as="offset" />
          </mxGeometry>
        </mxCell>
        <mxCell id="42" value="" style="endArrow=classic;html=1;rounded=0;exitX=1;exitY=0.5;exitDx=0;exitDy=0;entryX=0;entryY=0.25;entryDx=0;entryDy=0;" parent="1" source="6" target="12" edge="1">
          <mxGeometry width="50" height="50" relative="1" as="geometry">
            <mxPoint x="450" y="375" as="sourcePoint" />
            <mxPoint x="580" y="375" as="targetPoint" />
          </mxGeometry>
        </mxCell>
        <mxCell id="41" value="Insert Data" style="edgeLabel;html=1;align=center;verticalAlign=middle;resizable=0;points=[];fontSize=12;" parent="42" vertex="1" connectable="0">
          <mxGeometry x="-0.25" y="1" relative="1" as="geometry">
            <mxPoint as="offset" />
          </mxGeometry>
        </mxCell>
        <mxCell id="44" value="" style="endArrow=classic;html=1;rounded=0;entryX=1;entryY=0.5;entryDx=0;entryDy=0;exitX=0.104;exitY=1.012;exitDx=0;exitDy=0;exitPerimeter=0;" parent="1" source="12" edge="1">
          <mxGeometry width="50" height="50" relative="1" as="geometry">
            <mxPoint x="643" y="401" as="sourcePoint" />
            <mxPoint x="508" y="388" as="targetPoint" />
            <Array as="points">
              <mxPoint x="557" y="404" />
            </Array>
          </mxGeometry>
        </mxCell>
        <mxCell id="43" value="Reply" style="edgeLabel;html=1;align=center;verticalAlign=middle;resizable=0;points=[];fontSize=12;" parent="44" vertex="1" connectable="0">
          <mxGeometry x="0.25" y="-1" relative="1" as="geometry">
            <mxPoint as="offset" />
          </mxGeometry>
        </mxCell>
        <mxCell id="50" value="" style="endArrow=classic;html=1;rounded=0;exitX=1;exitY=0.5;exitDx=0;exitDy=0;entryX=0;entryY=0.25;entryDx=0;entryDy=0;" parent="1" source="7" target="13" edge="1">
          <mxGeometry width="50" height="50" relative="1" as="geometry">
            <mxPoint x="450" y="495" as="sourcePoint" />
            <mxPoint x="580" y="495" as="targetPoint" />
          </mxGeometry>
        </mxCell>
        <mxCell id="49" value="Insert Data" style="edgeLabel;html=1;align=center;verticalAlign=middle;resizable=0;points=[];fontSize=12;" parent="50" vertex="1" connectable="0">
          <mxGeometry x="-0.25" y="1" relative="1" as="geometry">
            <mxPoint x="-2" y="-2" as="offset" />
          </mxGeometry>
        </mxCell>
        <mxCell id="52" value="" style="endArrow=classic;html=1;rounded=0;" parent="1" edge="1">
          <mxGeometry width="50" height="50" relative="1" as="geometry">
            <mxPoint x="658" y="505" as="sourcePoint" />
            <mxPoint x="514" y="513" as="targetPoint" />
          </mxGeometry>
        </mxCell>
        <mxCell id="51" value="Reply" style="edgeLabel;html=1;align=center;verticalAlign=middle;resizable=0;points=[];fontSize=12;" parent="52" vertex="1" connectable="0">
          <mxGeometry x="0.25" y="-1" relative="1" as="geometry">
            <mxPoint as="offset" />
          </mxGeometry>
        </mxCell>
        <mxCell id="58" value="" style="endArrow=classic;html=1;rounded=0;entryX=0;entryY=0.25;entryDx=0;entryDy=0;" parent="1" target="14" edge="1">
          <mxGeometry width="50" height="50" relative="1" as="geometry">
            <mxPoint x="509" y="610" as="sourcePoint" />
            <mxPoint x="611" y="608" as="targetPoint" />
          </mxGeometry>
        </mxCell>
        <mxCell id="57" value="Send Data" style="edgeLabel;html=1;align=center;verticalAlign=middle;resizable=0;points=[];fontSize=12;" parent="58" vertex="1" connectable="0">
          <mxGeometry x="-0.25" y="1" relative="1" as="geometry">
            <mxPoint as="offset" />
          </mxGeometry>
        </mxCell>
        <mxCell id="60" value="" style="endArrow=classic;html=1;rounded=0;exitX=0.127;exitY=1.153;exitDx=0;exitDy=0;exitPerimeter=0;" parent="1" edge="1">
          <mxGeometry width="50" height="50" relative="1" as="geometry">
            <mxPoint x="693.24" y="633.06" as="sourcePoint" />
            <mxPoint x="512" y="642" as="targetPoint" />
            <Array as="points">
              <mxPoint x="578" y="646" />
            </Array>
          </mxGeometry>
        </mxCell>
        <mxCell id="59" value="Reply" style="edgeLabel;html=1;align=center;verticalAlign=middle;resizable=0;points=[];fontSize=12;" parent="60" vertex="1" connectable="0">
          <mxGeometry x="0.25" y="-1" relative="1" as="geometry">
            <mxPoint as="offset" />
          </mxGeometry>
        </mxCell>
        <mxCell id="66" value="" style="endArrow=classic;html=1;rounded=0;exitX=1;exitY=0.25;exitDx=0;exitDy=0;entryX=0;entryY=0;entryDx=0;entryDy=0;" parent="1" source="9" target="15" edge="1">
          <mxGeometry width="50" height="50" relative="1" as="geometry">
            <mxPoint x="479" y="721" as="sourcePoint" />
            <mxPoint x="580" y="721" as="targetPoint" />
          </mxGeometry>
        </mxCell>
        <mxCell id="65" value="Send Data" style="edgeLabel;html=1;align=center;verticalAlign=middle;resizable=0;points=[];fontSize=12;" parent="66" vertex="1" connectable="0">
          <mxGeometry x="-0.25" y="1" relative="1" as="geometry">
            <mxPoint x="55" y="-12" as="offset" />
          </mxGeometry>
        </mxCell>
        <mxCell id="68" value="" style="endArrow=classic;html=1;rounded=0;entryX=1;entryY=0.5;entryDx=0;entryDy=0;exitX=0.078;exitY=0.953;exitDx=0;exitDy=0;exitPerimeter=0;" parent="1" source="15" target="9" edge="1">
          <mxGeometry width="50" height="50" relative="1" as="geometry">
            <mxPoint x="580" y="755" as="sourcePoint" />
            <mxPoint x="450" y="755" as="targetPoint" />
          </mxGeometry>
        </mxCell>
        <mxCell id="67" value="Reply" style="edgeLabel;html=1;align=center;verticalAlign=middle;resizable=0;points=[];fontSize=12;" parent="68" vertex="1" connectable="0">
          <mxGeometry x="0.25" y="-1" relative="1" as="geometry">
            <mxPoint as="offset" />
          </mxGeometry>
        </mxCell>
        <mxCell id="69" value="1 Level DFD for Education." style="text;html=1;strokeColor=none;fillColor=none;align=center;verticalAlign=middle;whiteSpace=wrap;rounded=0;fontSize=14;" parent="1" vertex="1">
          <mxGeometry x="225" y="880" width="400" height="30" as="geometry" />
        </mxCell>
        <mxCell id="71" value="" style="endArrow=classic;html=1;rounded=0;fontSize=12;startSize=8;endSize=8;curved=1;exitX=1;exitY=0.25;exitDx=0;exitDy=0;entryX=0;entryY=0.5;entryDx=0;entryDy=0;" parent="1" source="3" target="5" edge="1">
          <mxGeometry width="50" height="50" relative="1" as="geometry">
            <mxPoint x="401" y="437" as="sourcePoint" />
            <mxPoint x="451" y="387" as="targetPoint" />
          </mxGeometry>
        </mxCell>
        <mxCell id="86" value="add course" style="edgeLabel;html=1;align=center;verticalAlign=middle;resizable=0;points=[];fontSize=12;" parent="71" vertex="1" connectable="0">
          <mxGeometry x="-0.1488" relative="1" as="geometry">
            <mxPoint as="offset" />
          </mxGeometry>
        </mxCell>
        <mxCell id="72" value="" style="endArrow=classic;html=1;rounded=0;fontSize=12;startSize=8;endSize=8;curved=1;entryX=1;entryY=0.75;entryDx=0;entryDy=0;" parent="1" target="3" edge="1">
          <mxGeometry width="50" height="50" relative="1" as="geometry">
            <mxPoint x="341" y="285" as="sourcePoint" />
            <mxPoint x="451" y="387" as="targetPoint" />
          </mxGeometry>
        </mxCell>
        <mxCell id="87" value="response" style="edgeLabel;html=1;align=center;verticalAlign=middle;resizable=0;points=[];fontSize=12;" parent="72" vertex="1" connectable="0">
          <mxGeometry x="-0.24" y="-1" relative="1" as="geometry">
            <mxPoint as="offset" />
          </mxGeometry>
        </mxCell>
        <mxCell id="73" value="" style="endArrow=classic;html=1;rounded=0;fontSize=12;startSize=8;endSize=8;curved=1;exitX=0.75;exitY=1;exitDx=0;exitDy=0;entryX=0;entryY=0.25;entryDx=0;entryDy=0;" parent="1" source="3" target="6" edge="1">
          <mxGeometry width="50" height="50" relative="1" as="geometry">
            <mxPoint x="401" y="437" as="sourcePoint" />
            <mxPoint x="451" y="387" as="targetPoint" />
          </mxGeometry>
        </mxCell>
        <mxCell id="88" value="add teacher" style="edgeLabel;html=1;align=center;verticalAlign=middle;resizable=0;points=[];fontSize=12;" parent="73" vertex="1" connectable="0">
          <mxGeometry x="0.0387" y="4" relative="1" as="geometry">
            <mxPoint as="offset" />
          </mxGeometry>
        </mxCell>
        <mxCell id="74" value="" style="endArrow=classic;html=1;rounded=0;fontSize=12;startSize=8;endSize=8;curved=1;entryX=0.75;entryY=1;entryDx=0;entryDy=0;exitX=0.016;exitY=0.635;exitDx=0;exitDy=0;exitPerimeter=0;" parent="1" source="6" target="3" edge="1">
          <mxGeometry width="50" height="50" relative="1" as="geometry">
            <mxPoint x="341" y="383" as="sourcePoint" />
            <mxPoint x="451" y="481" as="targetPoint" />
          </mxGeometry>
        </mxCell>
        <mxCell id="89" value="response" style="edgeLabel;html=1;align=center;verticalAlign=middle;resizable=0;points=[];fontSize=12;" parent="74" vertex="1" connectable="0">
          <mxGeometry x="-0.5122" y="-1" relative="1" as="geometry">
            <mxPoint x="-1" as="offset" />
          </mxGeometry>
        </mxCell>
        <mxCell id="75" value="" style="endArrow=classic;html=1;rounded=0;fontSize=12;startSize=8;endSize=8;curved=1;exitX=0.5;exitY=1;exitDx=0;exitDy=0;entryX=0;entryY=0.25;entryDx=0;entryDy=0;" parent="1" source="3" target="7" edge="1">
          <mxGeometry width="50" height="50" relative="1" as="geometry">
            <mxPoint x="401" y="531" as="sourcePoint" />
            <mxPoint x="451" y="481" as="targetPoint" />
          </mxGeometry>
        </mxCell>
        <mxCell id="90" value="add student" style="edgeLabel;html=1;align=center;verticalAlign=middle;resizable=0;points=[];fontSize=12;" parent="75" vertex="1" connectable="0">
          <mxGeometry x="0.367" y="3" relative="1" as="geometry">
            <mxPoint as="offset" />
          </mxGeometry>
        </mxCell>
        <mxCell id="76" value="" style="endArrow=classic;html=1;rounded=0;fontSize=12;startSize=8;endSize=8;curved=1;exitX=0;exitY=0.5;exitDx=0;exitDy=0;entryX=0.25;entryY=1;entryDx=0;entryDy=0;" parent="1" source="7" target="3" edge="1">
          <mxGeometry width="50" height="50" relative="1" as="geometry">
            <mxPoint x="401" y="531" as="sourcePoint" />
            <mxPoint x="451" y="481" as="targetPoint" />
          </mxGeometry>
        </mxCell>
        <mxCell id="91" value="response" style="edgeLabel;html=1;align=center;verticalAlign=middle;resizable=0;points=[];fontSize=12;" parent="76" vertex="1" connectable="0">
          <mxGeometry x="-0.5569" y="2" relative="1" as="geometry">
            <mxPoint y="1" as="offset" />
          </mxGeometry>
        </mxCell>
        <mxCell id="81" value="" style="curved=1;endArrow=classic;html=1;rounded=0;fontSize=12;startSize=8;endSize=8;exitX=0.13;exitY=1.044;exitDx=0;exitDy=0;exitPerimeter=0;entryX=0;entryY=0.5;entryDx=0;entryDy=0;" parent="1" source="3" target="8" edge="1">
          <mxGeometry width="50" height="50" relative="1" as="geometry">
            <mxPoint x="346" y="597" as="sourcePoint" />
            <mxPoint x="396" y="547" as="targetPoint" />
            <Array as="points">
              <mxPoint x="396" y="597" />
              <mxPoint x="346" y="547" />
            </Array>
          </mxGeometry>
        </mxCell>
        <mxCell id="92" value="view report" style="edgeLabel;html=1;align=center;verticalAlign=middle;resizable=0;points=[];fontSize=12;" parent="81" vertex="1" connectable="0">
          <mxGeometry x="0.0305" y="-1" relative="1" as="geometry">
            <mxPoint y="-1" as="offset" />
          </mxGeometry>
        </mxCell>
        <mxCell id="83" value="" style="endArrow=classic;html=1;rounded=0;fontSize=12;startSize=8;endSize=8;curved=1;exitX=0;exitY=0.75;exitDx=0;exitDy=0;entryX=0;entryY=1;entryDx=0;entryDy=0;" parent="1" source="8" target="3" edge="1">
          <mxGeometry width="50" height="50" relative="1" as="geometry">
            <mxPoint x="346" y="562" as="sourcePoint" />
            <mxPoint x="396" y="512" as="targetPoint" />
          </mxGeometry>
        </mxCell>
        <mxCell id="93" value="display data" style="edgeLabel;html=1;align=center;verticalAlign=middle;resizable=0;points=[];fontSize=12;" parent="83" vertex="1" connectable="0">
          <mxGeometry x="-0.5347" y="-5" relative="1" as="geometry">
            <mxPoint y="-1" as="offset" />
          </mxGeometry>
        </mxCell>
        <mxCell id="84" value="" style="endArrow=classic;html=1;rounded=0;fontSize=12;startSize=8;endSize=8;curved=1;exitX=0;exitY=0.75;exitDx=0;exitDy=0;entryX=0.099;entryY=0.987;entryDx=0;entryDy=0;entryPerimeter=0;" parent="1" source="9" edge="1">
          <mxGeometry width="50" height="50" relative="1" as="geometry">
            <mxPoint x="357.12" y="761.15" as="sourcePoint" />
            <mxPoint x="41.99999999999999" y="304" as="targetPoint" />
            <Array as="points">
              <mxPoint x="164" y="648" />
            </Array>
          </mxGeometry>
        </mxCell>
        <mxCell id="94" value="response" style="edgeLabel;html=1;align=center;verticalAlign=middle;resizable=0;points=[];fontSize=12;" parent="84" vertex="1" connectable="0">
          <mxGeometry x="-0.5177" y="2" relative="1" as="geometry">
            <mxPoint x="1" as="offset" />
          </mxGeometry>
        </mxCell>
        <mxCell id="85" value="" style="endArrow=classic;html=1;rounded=0;fontSize=12;startSize=8;endSize=8;curved=1;exitX=0.366;exitY=1.062;exitDx=0;exitDy=0;exitPerimeter=0;entryX=0;entryY=0.5;entryDx=0;entryDy=0;" parent="1" source="3" target="9" edge="1">
          <mxGeometry width="50" height="50" relative="1" as="geometry">
            <mxPoint x="346" y="580" as="sourcePoint" />
            <mxPoint x="396" y="530" as="targetPoint" />
            <Array as="points">
              <mxPoint x="190" y="551" />
            </Array>
          </mxGeometry>
        </mxCell>
        <mxCell id="95" value="manage&lt;div&gt;&amp;nbsp;student&lt;/div&gt;" style="edgeLabel;html=1;align=center;verticalAlign=middle;resizable=0;points=[];fontSize=12;" parent="85" vertex="1" connectable="0">
          <mxGeometry x="0.3839" y="2" relative="1" as="geometry">
            <mxPoint x="17" y="7" as="offset" />
          </mxGeometry>
        </mxCell>
      </root>
    </mxGraphModel>
  </diagram>
</mxfile>
